<svg width="32" height="32" viewBox="0 0 32 32" fill="none" xmlns="http://www.w3.org/2000/svg">
<path fill-rule="evenodd" clip-rule="evenodd" d="M22.4292 18.375C21.3013 21.0904 18.6236 23 15.5 23C12.3764 23 9.69875 21.0904 8.57081 18.375H4.3623C5.63893 23.335 10.1415 27 15.5 27C20.8585 27 25.3611 23.335 26.6377 18.375H22.4292ZM8.91546 11.9062C10.1886 9.57861 12.6599 8 15.5 8C18.3401 8 20.8115 9.57861 22.0845 11.9062H26.4273C24.9183 7.31497 20.5963 4 15.5 4C10.4038 4 6.08175 7.31497 4.57267 11.9062H8.91546Z" fill="#C4C4C4"/>
<path d="M5.79688 12.9844L4.04856 13.9557L4.74458 15.2085L6.15465 14.9521L5.79688 12.9844ZM5.74831 8.77871C5.21189 7.81315 3.99428 7.46526 3.02871 8.00169C2.06315 8.53811 1.71526 9.75572 2.25169 10.7213L5.74831 8.77871ZM10.1078 14.2334C11.1945 14.0358 11.9153 12.9946 11.7177 11.9079C11.5201 10.8211 10.479 10.1003 9.39223 10.2979L10.1078 14.2334ZM7.54519 12.0131L5.74831 8.77871L2.25169 10.7213L4.04856 13.9557L7.54519 12.0131ZM6.15465 14.9521L10.1078 14.2334L9.39223 10.2979L5.4391 11.0166L6.15465 14.9521Z" fill="#C4C4C4"/>
<path d="M25.2031 17.6562L26.9514 16.685L26.2554 15.4321L24.8454 15.6885L25.2031 17.6562ZM25.2517 21.8619C25.7881 22.8275 27.0057 23.1754 27.9713 22.6389C28.9369 22.1025 29.2847 20.8849 28.7483 19.9193L25.2517 21.8619ZM20.8922 16.4073C19.8055 16.6049 19.0847 17.646 19.2823 18.7328C19.4799 19.8195 20.521 20.5403 21.6078 20.3427L20.8922 16.4073ZM23.4548 18.6275L25.2517 21.8619L28.7483 19.9193L26.9514 16.685L23.4548 18.6275ZM24.8454 15.6885L20.8922 16.4073L21.6078 20.3427L25.5609 19.624L24.8454 15.6885Z" fill="#C4C4C4"/>
</svg>
