<svg width="48" height="48" viewBox="0 0 48 48" fill="none" xmlns="http://www.w3.org/2000/svg">
<path fill-rule="evenodd" clip-rule="evenodd" d="M35.3172 28C33.6698 32.6608 29.2249 36 24 36C17.3726 36 12 30.6274 12 24C12 17.3726 17.3726 12 24 12C28.843 12 33.0159 14.8689 34.9119 19H39.2032C37.1037 12.6121 31.0904 8 24 8C15.1634 8 8 15.1634 8 24C8 32.8366 15.1634 40 24 40C31.4554 40 37.7198 34.9009 39.4959 28H35.3172Z" fill="#C4C4C4"/>
<path d="M37.5 27L39.2483 26.0287L38.5523 24.7759L37.1422 25.0323L37.5 27ZM38.2517 32.4713C38.7881 33.4369 40.0057 33.7847 40.9713 33.2483C41.9369 32.7119 42.2847 31.4943 41.7483 30.5287L38.2517 32.4713ZM31.6422 26.0323C30.5555 26.2299 29.8347 27.271 30.0323 28.3578C30.2299 29.4445 31.271 30.1653 32.3578 29.9677L31.6422 26.0323ZM35.7517 27.9713L38.2517 32.4713L41.7483 30.5287L39.2483 26.0287L35.7517 27.9713ZM37.1422 25.0323L31.6422 26.0323L32.3578 29.9677L37.8578 28.9677L37.1422 25.0323Z" fill="#C4C4C4"/>
</svg>
