<svg width="32" height="32" viewBox="0 0 32 32" fill="none" xmlns="http://www.w3.org/2000/svg">
<path d="M23.2259 13.5671C23.5667 13.7564 23.8508 14.0334 24.0485 14.3694C24.2463 14.7055 24.3506 15.0883 24.3506 15.4782C24.3506 15.8681 24.2463 16.2509 24.0485 16.5869C23.8508 16.9229 23.5667 17.1999 23.2259 17.3892L9.24749 25.1515C8.91472 25.3363 8.53945 25.431 8.15884 25.4263C7.77823 25.4215 7.40546 25.3174 7.07742 25.1243C6.74937 24.9313 6.47744 24.6559 6.28852 24.3254C6.09959 23.995 6.00023 23.6209 6.00027 23.2403V7.71643C6.00023 7.33578 6.09959 6.96173 6.28852 6.63128C6.47744 6.30083 6.74937 6.02544 7.07742 5.83236C7.40546 5.63928 7.77823 5.53521 8.15884 5.53044C8.53945 5.52568 8.91472 5.62038 9.24749 5.80518L23.2259 13.5671Z" fill="#C4C4C4"/>
<path d="M23.9111 5H22.5365C21.3293 5 20.3506 5.97868 20.3506 7.18594V23.9131C20.3506 25.1204 21.3293 26.0991 22.5365 26.0991H23.9111C25.1184 26.0991 26.0971 25.1204 26.0971 23.9131V7.18594C26.0971 5.97868 25.1184 5 23.9111 5Z" fill="#C4C4C4"/>
</svg>
